# xmcd
#
# Track frame offsets:
#	150
#	11505
#	26162
#	40175
#	51300
#	70593
#	81632
#	93630
#	105509
#	120203
#	131411
#	144747
#	155805
#	166570
#
# Disc length: 2419 seconds
# Revision: 0
# Processed by: cddbd v1.5.2PL0 Copyright (c) Steve Scherf et al.
# Submitted via: dBpowerAMP V12.0
#
DISCID=b509710e
DTITLE=Kelly Spinks - Right Out Of This World
DYEAR=2012
DGENRE=Country
TTITLE0=Ain't It Funny We Got Over You Know Who
TTITLE1=I've Always Wanted To
TTITLE2=Right Out Of This World
TTITLE3=I Just Came To Get My Baby
TTITLE4=I Just Want Out
TTITLE5=I Always Go Home For Dessert
TTITLE6=Two Dollar Toy
TTITLE7=Knock 3 Times
TTITLE8=Lonesome Fiddle Man
TTITLE9=Barmaids and Barstools
TTITLE10=Take A Look At A Fool
TTITLE11=Fiddlers Lady
TTITLE12=Darling Who's The Stranger
TTITLE13=Molly Rose
EXTD=
EXTT0=
EXTT1=
EXTT2=
EXTT3=
EXTT4=
EXTT5=
EXTT6=
EXTT7=
EXTT8=
EXTT9=
EXTT10=
EXTT11=
EXTT12=
EXTT13=
PLAYORDER=
